<?xml version="1.0" encoding="UTF-8"?><svg id="Layer_2" xmlns="http://www.w3.org/2000/svg" viewBox="0 0 353.85 95.38"><defs><style>.cls-1,.cls-2{fill:#9432c1;stroke-width:0px;}.cls-2{fill-rule:evenodd;}</style></defs><g id="Layer_1-2"><path class="cls-1" d="M73.08,58.79c1.93,0,3.6-.4,5-1.2,1.47-.87,2.6-2.07,3.4-3.6.8-1.53,1.2-3.3,1.2-5.3s-.43-3.73-1.3-5.2c-.8-1.53-1.9-2.7-3.3-3.5-1.4-.87-3.07-1.3-5-1.3s-3.53.43-5,1.3c-1.47.87-2.6,2.07-3.4,3.6-.8,1.47-1.2,3.2-1.2,5.2s.4,3.67,1.2,5.2c.8,1.53,1.93,2.73,3.4,3.6,1.47.8,3.13,1.2,5,1.2Z"/><path class="cls-2" d="M11.5,70.89c3.6,2.2,7.77,3.3,12.5,3.3,3.07,0,5.93-.6,8.6-1.8,1.22-.58,2.36-1.25,3.4-2.02v2.82h17.1v-6.7c-1.4-1.41-2.64-2.97-3.71-4.69-2.4-3.93-3.6-8.33-3.6-13.2s1.17-9.2,3.5-13c1.09-1.76,2.36-3.34,3.81-4.75V1.56h-17.4v25c-.96-.6-1.99-1.13-3.1-1.57-2.67-1.13-5.53-1.7-8.6-1.7-4.8,0-9,1.1-12.6,3.3-3.53,2.13-6.33,5.13-8.4,9-2,3.87-3,8.27-3,13.2s1,9.23,3,13.1c2.07,3.8,4.9,6.8,8.5,9ZM32.09,57.49c-1.4.8-3.07,1.2-5,1.2-1.8,0-3.43-.43-4.9-1.3-1.47-.87-2.6-2.03-3.4-3.5-.8-1.53-1.2-3.27-1.2-5.2s.4-3.53,1.2-5c.87-1.53,2-2.73,3.4-3.6,1.47-.87,3.13-1.3,5-1.3s3.5.43,4.9,1.3c1.47.87,2.6,2.03,3.4,3.5.8,1.47,1.2,3.17,1.2,5.1s-.43,3.77-1.3,5.3c-.8,1.47-1.9,2.63-3.3,3.5Z"/><path class="cls-2" d="M160.05,16c1.73,1.73,3.9,2.6,6.5,2.6,2.73,0,4.93-.87,6.6-2.6,1.73-1.8,2.6-4.03,2.6-6.7s-.87-4.8-2.6-6.6c-1.67-1.8-3.87-2.7-6.6-2.7s-4.77.9-6.5,2.7c-1.73,1.8-2.6,4-2.6,6.6s.87,4.9,2.6,6.7ZM92.01,73.19v-5.65c1.87-1.66,3.46-3.58,4.77-5.74,2.4-3.93,3.6-8.33,3.6-13.2,0-3.55-.64-6.82-1.92-9.8-.47-1.11-1.03-2.17-1.68-3.2-1.33-2.14-2.92-4.02-4.77-5.64-1.5-1.32-3.18-2.47-5.03-3.46-1.65-.92-3.39-1.65-5.23-2.2h10.26V1.56h17.4v22.73h14.3V1.56h17.4v22.73h10.8v14.5h-10.8v34.39h-17.4v-34.39h-14.3v34.39h-17.4ZM157.85,73.19V24.3h17.5v48.89h-17.5ZM217.18,73.19v-27.6c0-2.27-.67-4.03-2-5.3-1.33-1.33-3.03-2-5.1-2-1.4,0-2.67.3-3.8.9-1.07.6-1.9,1.43-2.5,2.5s-.9,2.37-.9,3.9v27.6h-17.4V24.3h17.4v3.24c.89-.69,1.86-1.31,2.9-1.84,3.07-1.6,6.53-2.4,10.4-2.4,3.53,0,6.67.83,9.4,2.5,2.8,1.6,5,3.77,6.6,6.5,1.6,2.73,2.4,5.83,2.4,9.3v31.59h-17.4ZM250.18,92.58c4.2,1.87,9,2.8,14.4,2.8s10.1-1.07,14.3-3.2c4.2-2.07,7.5-5.03,9.9-8.9,2.47-3.8,3.7-8.3,3.7-13.5V24.3h-17.1v2.42c-.97-.67-2.03-1.24-3.2-1.72-2.53-1.13-5.33-1.7-8.4-1.7-4.53,0-8.56,1.07-12.1,3.2-3.47,2.13-6.2,5-8.2,8.6-2,3.6-3,7.67-3,12.2s1,8.63,3,12.3,4.73,6.57,8.2,8.7c3.53,2.07,7.57,3.1,12.1,3.1,3.07,0,5.87-.53,8.4-1.6,1.05-.47,2.01-1,2.9-1.61v2.21c0,3.2-1.03,5.63-3.1,7.3-2,1.73-4.73,2.6-8.2,2.6-2.87,0-5.3-.53-7.3-1.6-2-1-3.83-2.4-5.5-4.2l-10.5,10.4c2.33,3.33,5.57,5.9,9.7,7.7ZM326.65,74.29c-5.27,0-9.96-1.1-14.1-3.3-4.07-2.27-7.3-5.33-9.7-9.2-2.4-3.93-3.6-8.33-3.6-13.2s1.17-9.2,3.5-13c2.4-3.87,5.67-6.9,9.8-9.1,4.13-2.27,8.8-3.4,14-3.4s9.83,1.13,13.9,3.4c4.13,2.2,7.4,5.23,9.8,9.1,2.4,3.8,3.6,8.13,3.6,13s-1.2,9.27-3.6,13.2c-2.33,3.87-5.57,6.93-9.7,9.2-4.07,2.2-8.7,3.3-13.9,3.3ZM326.55,58.79c1.93,0,3.6-.4,5-1.2,1.47-.87,2.6-2.07,3.4-3.6.8-1.53,1.2-3.3,1.2-5.3s-.43-3.73-1.3-5.2c-.8-1.53-1.9-2.7-3.3-3.5-1.4-.87-3.07-1.3-5-1.3s-3.53.43-5,1.3c-1.47.87-2.6,2.07-3.4,3.6-.8,1.47-1.2,3.2-1.2,5.2s.4,3.67,1.2,5.2c.8,1.53,1.93,2.73,3.4,3.6,1.47.8,3.13,1.2,5,1.2ZM271.8,57.59c-1.4.8-3.07,1.2-5,1.2s-3.53-.4-5-1.2c-1.47-.87-2.6-2.07-3.4-3.6-.8-1.53-1.2-3.27-1.2-5.2s.4-3.73,1.2-5.2c.8-1.53,1.93-2.73,3.4-3.6,1.47-.87,3.13-1.3,5-1.3s3.6.43,5,1.3c1.4.8,2.5,1.97,3.3,3.5.87,1.47,1.3,3.2,1.3,5.2s-.4,3.77-1.2,5.3c-.8,1.53-1.93,2.73-3.4,3.6Z"/></g></svg>